<?xml version="1.0" standalone="no"?>
<!DOCTYPE svg PUBLIC "-//W3C//DTD SVG 20010904//EN"
 "http://www.w3.org/TR/2001/REC-SVG-20010904/DTD/svg10.dtd">
<svg version="1.0" xmlns="http://www.w3.org/2000/svg"
 width="117.000000pt" height="117.000000pt" viewBox="0 0 117.000000 117.000000"
 preserveAspectRatio="xMidYMid meet">
<metadata>
Created by potrace 1.10, written by Peter Selinger 2001-2011
</metadata>
<g transform="translate(0.000000,117.000000) scale(0.100000,-0.100000)"
fill="#000000" stroke="none">
<path d="M112 1024 c-45 -31 -52 -63 -52 -224 l0 -150 115 0 115 0 0 80 0 80
265 0 264 0 3 -77 3 -78 118 -3 117 -3 0 146 c0 160 -9 199 -53 228 -24 15
-68 17 -449 17 -368 0 -426 -2 -446 -16z"/>
<path d="M114 611 c-49 -30 -56 -60 -52 -239 5 -246 -25 -232 505 -232 382 0
399 1 431 20 52 32 62 69 62 231 0 157 -9 193 -59 222 -26 15 -71 17 -443 17
-386 0 -415 -1 -444 -19z m706 -221 c0 -6 -95 -10 -266 -10 -174 0 -263 3
-259 10 8 14 525 14 525 0z"/>
<path d="M70 91 c0 -6 5 -13 10 -16 6 -3 10 1 10 9 0 9 -4 16 -10 16 -5 0 -10
-4 -10 -9z"/>
</g>
</svg>
