<?xml version="1.0" standalone="no"?>
<!DOCTYPE svg PUBLIC "-//W3C//DTD SVG 20010904//EN"
 "http://www.w3.org/TR/2001/REC-SVG-20010904/DTD/svg10.dtd">
<svg version="1.0" xmlns="http://www.w3.org/2000/svg"
 width="117.000000pt" height="117.000000pt" viewBox="0 0 117.000000 117.000000"
 preserveAspectRatio="xMidYMid meet">
<metadata>
Created by potrace 1.10, written by Peter Selinger 2001-2011
</metadata>
<g transform="translate(0.000000,117.000000) scale(0.100000,-0.100000)"
fill="#000000" stroke="none">
<path d="M150 1027 c-19 -7 -44 -27 -57 -46 -23 -34 -23 -36 -23 -393 0 -299
2 -364 15 -388 30 -58 40 -60 267 -60 l208 0 0 115 0 115 -130 0 -130 0 0 215
0 215 130 0 131 0 -3 118 -3 117 -185 2 c-123 1 -197 -2 -220 -10z"/>
<path d="M587 1033 c-4 -3 -7 -57 -7 -120 l0 -113 125 0 125 0 0 -215 0 -215
-125 0 -125 0 0 -115 0 -115 201 0 c171 0 205 3 230 17 52 31 54 47 54 438 0
331 -1 362 -18 387 -35 51 -68 58 -269 58 -102 0 -188 -3 -191 -7z"/>
<path d="M80 85 c0 -8 5 -15 10 -15 6 0 10 7 10 15 0 8 -4 15 -10 15 -5 0 -10
-7 -10 -15z"/>
</g>
</svg>
