<?xml version="1.0" standalone="no"?>
<!DOCTYPE svg PUBLIC "-//W3C//DTD SVG 20010904//EN"
 "http://www.w3.org/TR/2001/REC-SVG-20010904/DTD/svg10.dtd">
<svg version="1.0" xmlns="http://www.w3.org/2000/svg"
 width="117.000000pt" height="117.000000pt" viewBox="0 0 117.000000 117.000000"
 preserveAspectRatio="xMidYMid meet">
<metadata>
Created by potrace 1.10, written by Peter Selinger 2001-2011
</metadata>
<g transform="translate(0.000000,117.000000) scale(0.100000,-0.100000)"
fill="#000000" stroke="none">
<path d="M87 1033 c-4 -3 -7 -57 -7 -120 l0 -113 380 0 c247 0 380 -4 380 -10
0 -6 -118 -10 -335 -10 -369 0 -380 -2 -410 -60 -22 -42 -22 -477 0 -520 32
-62 15 -60 517 -60 l458 0 0 115 0 115 -380 0 -380 0 0 90 0 89 351 3 351 3
29 33 29 32 0 174 0 174 -29 30 c-17 16 -44 32 -62 36 -42 8 -884 8 -892 -1z"/>
<path d="M80 85 c0 -8 7 -15 15 -15 8 0 15 7 15 15 0 8 -7 15 -15 15 -8 0 -15
-7 -15 -15z"/>
</g>
</svg>
