<?xml version="1.0" standalone="no"?>
<!DOCTYPE svg PUBLIC "-//W3C//DTD SVG 20010904//EN"
 "http://www.w3.org/TR/2001/REC-SVG-20010904/DTD/svg10.dtd">
<svg version="1.0" xmlns="http://www.w3.org/2000/svg"
 width="117.000000pt" height="117.000000pt" viewBox="0 0 117.000000 117.000000"
 preserveAspectRatio="xMidYMid meet">
<metadata>
Created by potrace 1.10, written by Peter Selinger 2001-2011
</metadata>
<g transform="translate(0.000000,117.000000) scale(0.100000,-0.100000)"
fill="#000000" stroke="none">
<path d="M90 947 c0 -88 2 -97 29 -133 34 -46 374 -384 411 -408 35 -23 445
-24 490 -1 60 31 60 32 60 348 l0 288 -112 -3 -113 -3 -3 -207 -2 -208 -107 0
-107 0 -158 157 -158 157 0 53 0 53 -115 0 -115 0 0 -93z"/>
<path d="M90 410 c0 -141 3 -187 15 -210 32 -62 15 -60 517 -60 l458 0 0 115
0 115 -380 0 -380 0 0 110 0 110 -115 0 -115 0 0 -180z"/>
<path d="M90 85 c0 -8 7 -15 15 -15 8 0 15 7 15 15 0 8 -7 15 -15 15 -8 0 -15
-7 -15 -15z"/>
</g>
</svg>
