<?xml version="1.0" standalone="no"?>
<!DOCTYPE svg PUBLIC "-//W3C//DTD SVG 20010904//EN"
 "http://www.w3.org/TR/2001/REC-SVG-20010904/DTD/svg10.dtd">
<svg version="1.0" xmlns="http://www.w3.org/2000/svg"
 width="117.000000pt" height="117.000000pt" viewBox="0 0 117.000000 117.000000"
 preserveAspectRatio="xMidYMid meet">
<metadata>
Created by potrace 1.10, written by Peter Selinger 2001-2011
</metadata>
<g transform="translate(0.000000,117.000000) scale(0.100000,-0.100000)"
fill="#000000" stroke="none">
<path d="M80 911 l0 -121 190 0 190 0 0 -330 0 -330 115 0 115 0 0 405 c0 430
-1 440 -49 472 -23 16 -58 18 -293 21 l-268 3 0 -120z"/>
<path d="M717 1023 c-2 -5 -3 -57 -3 -118 l1 -110 178 -3 177 -2 0 120 0 120
-174 0 c-96 0 -177 -3 -179 -7z"/>
<path d="M83 75 c0 -8 6 -15 14 -15 7 0 13 7 13 15 0 8 -6 15 -13 15 -8 0 -14
-7 -14 -15z"/>
</g>
</svg>
