<?xml version="1.0" standalone="no"?>
<!DOCTYPE svg PUBLIC "-//W3C//DTD SVG 20010904//EN"
 "http://www.w3.org/TR/2001/REC-SVG-20010904/DTD/svg10.dtd">
<svg version="1.0" xmlns="http://www.w3.org/2000/svg"
 width="117.000000pt" height="117.000000pt" viewBox="0 0 117.000000 117.000000"
 preserveAspectRatio="xMidYMid meet">
<metadata>
Created by potrace 1.10, written by Peter Selinger 2001-2011
</metadata>
<g transform="translate(0.000000,117.000000) scale(0.100000,-0.100000)"
fill="#000000" stroke="none">
<path d="M165 1016 c-66 -29 -70 -41 -73 -221 -3 -134 0 -169 13 -194 30 -60
40 -61 410 -61 l335 0 0 -90 0 -90 -380 0 -380 0 0 -115 0 -115 461 0 461 0
34 34 34 34 0 252 0 252 -34 34 -34 34 -346 0 c-224 0 -346 4 -346 10 0 6 133
10 380 10 l380 0 0 120 0 120 -442 0 c-345 -1 -450 -4 -473 -14z"/>
<path d="M90 75 c0 -8 7 -15 15 -15 8 0 15 7 15 15 0 8 -7 15 -15 15 -8 0 -15
-7 -15 -15z"/>
</g>
</svg>
