<?xml version="1.0" standalone="no"?>
<!DOCTYPE svg PUBLIC "-//W3C//DTD SVG 20010904//EN"
 "http://www.w3.org/TR/2001/REC-SVG-20010904/DTD/svg10.dtd">
<svg version="1.0" xmlns="http://www.w3.org/2000/svg"
 width="117.000000pt" height="117.000000pt" viewBox="0 0 117.000000 117.000000"
 preserveAspectRatio="xMidYMid meet">
<metadata>
Created by potrace 1.10, written by Peter Selinger 2001-2011
</metadata>
<g transform="translate(0.000000,117.000000) scale(0.100000,-0.100000)"
fill="#000000" stroke="none">
<path d="M113 1000 c-17 -10 -37 -28 -42 -39 -7 -13 -11 -149 -11 -394 0 -357
1 -375 20 -399 36 -46 54 -48 395 -46 l320 3 3 128 c3 167 22 160 22 -9 l0
-124 115 0 115 0 0 201 c0 286 -2 289 -247 289 -131 0 -152 -2 -181 -20 -45
-27 -62 -74 -62 -165 l0 -75 -135 0 -135 0 0 220 0 220 265 0 265 0 0 -80 0
-80 115 0 115 0 0 150 c0 115 -4 158 -15 180 -31 60 -34 60 -482 60 -386 0
-410 -1 -440 -20z"/>
<path d="M60 65 c0 -9 6 -12 15 -9 8 4 15 10 15 15 0 5 -7 9 -15 9 -8 0 -15
-7 -15 -15z"/>
</g>
</svg>
