<?xml version="1.0" standalone="no"?>
<!DOCTYPE svg PUBLIC "-//W3C//DTD SVG 20010904//EN"
 "http://www.w3.org/TR/2001/REC-SVG-20010904/DTD/svg10.dtd">
<svg version="1.0" xmlns="http://www.w3.org/2000/svg"
 width="117.000000pt" height="117.000000pt" viewBox="0 0 117.000000 117.000000"
 preserveAspectRatio="xMidYMid meet">
<metadata>
Created by potrace 1.10, written by Peter Selinger 2001-2011
</metadata>
<g transform="translate(0.000000,117.000000) scale(0.100000,-0.100000)"
fill="#000000" stroke="none">
<path d="M131 1007 c-33 -17 -60 -56 -63 -92 -1 -16 -1 -202 0 -412 l2 -383
115 0 115 0 0 335 0 335 259 0 c163 0 262 -4 266 -10 4 -7 -82 -10 -249 -10
l-256 0 0 -120 0 -120 315 0 c350 0 369 3 405 62 18 29 20 50 20 181 0 166
-11 206 -61 232 -38 20 -830 22 -868 2z"/>
<path d="M70 67 c0 -8 7 -14 15 -14 8 0 15 6 15 14 0 7 -7 13 -15 13 -8 0 -15
-6 -15 -13z"/>
</g>
</svg>
