<?xml version="1.0" standalone="no"?>
<!DOCTYPE svg PUBLIC "-//W3C//DTD SVG 20010904//EN"
 "http://www.w3.org/TR/2001/REC-SVG-20010904/DTD/svg10.dtd">
<svg version="1.0" xmlns="http://www.w3.org/2000/svg"
 width="117.000000pt" height="117.000000pt" viewBox="0 0 117.000000 117.000000"
 preserveAspectRatio="xMidYMid meet">
<metadata>
Created by potrace 1.10, written by Peter Selinger 2001-2011
</metadata>
<g transform="translate(0.000000,117.000000) scale(0.100000,-0.100000)"
fill="#000000" stroke="none">
<path d="M133 1000 c-17 -10 -37 -29 -43 -41 -16 -28 -14 -753 1 -781 6 -11
25 -28 42 -38 30 -19 54 -20 435 -20 449 0 456 1 486 65 14 28 16 85 16 392
-1 387 -1 387 -56 424 -27 18 -51 19 -439 19 -388 0 -412 -1 -442 -20z m705
-427 l-3 -218 -262 -3 -263 -2 0 220 0 220 265 0 265 0 -2 -217z"/>
<path d="M80 67 c0 -8 7 -14 15 -14 8 0 15 6 15 14 0 7 -7 13 -15 13 -8 0 -15
-6 -15 -13z"/>
</g>
</svg>
