<?xml version="1.0" standalone="no"?>
<!DOCTYPE svg PUBLIC "-//W3C//DTD SVG 20010904//EN"
 "http://www.w3.org/TR/2001/REC-SVG-20010904/DTD/svg10.dtd">
<svg version="1.0" xmlns="http://www.w3.org/2000/svg"
 width="117.000000pt" height="117.000000pt" viewBox="0 0 117.000000 117.000000"
 preserveAspectRatio="xMidYMid meet">
<metadata>
Created by potrace 1.10, written by Peter Selinger 2001-2011
</metadata>
<g transform="translate(0.000000,117.000000) scale(0.100000,-0.100000)"
fill="#000000" stroke="none">
<path d="M134 1001 c-17 -11 -36 -34 -43 -52 -7 -22 -11 -160 -11 -430 l0
-399 115 0 115 0 0 335 0 335 140 0 140 0 0 -290 c0 -325 3 -340 65 -366 49
-20 315 -20 355 1 62 32 60 20 60 472 l0 413 -115 0 -115 0 0 -335 c0 -217 -4
-335 -10 -335 -6 0 -10 103 -10 290 0 320 -3 335 -60 365 -24 12 -79 15 -312
15 -261 0 -285 -2 -314 -19z"/>
<path d="M86 65 c8 -19 24 -19 24 0 0 8 -7 15 -15 15 -9 0 -12 -6 -9 -15z"/>
</g>
</svg>
