<?xml version="1.0" standalone="no"?>
<!DOCTYPE svg PUBLIC "-//W3C//DTD SVG 20010904//EN"
 "http://www.w3.org/TR/2001/REC-SVG-20010904/DTD/svg10.dtd">
<svg version="1.0" xmlns="http://www.w3.org/2000/svg"
 width="117.000000pt" height="117.000000pt" viewBox="0 0 117.000000 117.000000"
 preserveAspectRatio="xMidYMid meet">
<metadata>
Created by potrace 1.10, written by Peter Selinger 2001-2011
</metadata>
<g transform="translate(0.000000,117.000000) scale(0.100000,-0.100000)"
fill="#000000" stroke="none">
<path d="M148 1005 c-57 -32 -58 -37 -58 -480 l0 -405 115 0 115 0 0 335 c0
217 4 335 10 335 6 0 10 -100 10 -280 0 -312 4 -334 62 -370 29 -18 50 -20
181 -20 165 0 200 9 230 59 15 26 17 64 17 320 0 187 4 291 10 291 6 0 10
-118 10 -335 l0 -335 115 0 115 0 0 413 c0 452 2 440 -60 472 -22 11 -66 15
-182 15 -135 0 -157 -2 -186 -20 -18 -11 -37 -32 -42 -46 -6 -14 -10 -149 -10
-309 0 -178 -4 -286 -10 -290 -7 -4 -10 90 -10 275 0 397 8 384 -239 387 -133
2 -171 0 -193 -12z"/>
<path d="M90 65 c0 -8 7 -15 15 -15 8 0 15 7 15 15 0 8 -7 15 -15 15 -8 0 -15
-7 -15 -15z"/>
</g>
</svg>
