<?xml version="1.0" standalone="no"?>
<!DOCTYPE svg PUBLIC "-//W3C//DTD SVG 20010904//EN"
 "http://www.w3.org/TR/2001/REC-SVG-20010904/DTD/svg10.dtd">
<svg version="1.0" xmlns="http://www.w3.org/2000/svg"
 width="117.000000pt" height="117.000000pt" viewBox="0 0 117.000000 117.000000"
 preserveAspectRatio="xMidYMid meet">
<metadata>
Created by potrace 1.10, written by Peter Selinger 2001-2011
</metadata>
<g transform="translate(0.000000,117.000000) scale(0.100000,-0.100000)"
fill="#000000" stroke="none">
<path d="M50 600 l0 -410 34 -38 34 -37 461 -3 461 -3 0 116 0 115 -377 2
-378 3 -3 333 -2 332 -115 0 -115 0 0 -410z"/>
<path d="M307 754 c-9 -9 -9 -250 -1 -293 4 -18 20 -45 36 -62 l30 -29 334 0
334 0 0 115 0 115 -250 0 -249 0 -3 78 -3 77 -111 3 c-60 1 -113 -1 -117 -4z"/>
<path d="M56 55 c8 -19 24 -19 24 0 0 8 -7 15 -15 15 -9 0 -12 -6 -9 -15z"/>
</g>
</svg>
