<?xml version="1.0" standalone="no"?>
<!DOCTYPE svg PUBLIC "-//W3C//DTD SVG 20010904//EN"
 "http://www.w3.org/TR/2001/REC-SVG-20010904/DTD/svg10.dtd">
<svg version="1.0" xmlns="http://www.w3.org/2000/svg"
 width="117.000000pt" height="117.000000pt" viewBox="0 0 117.000000 117.000000"
 preserveAspectRatio="xMidYMid meet">
<metadata>
Created by potrace 1.10, written by Peter Selinger 2001-2011
</metadata>
<g transform="translate(0.000000,117.000000) scale(0.100000,-0.100000)"
fill="#000000" stroke="none">
<path d="M124 1000 c-12 -4 -31 -21 -43 -36 -21 -26 -21 -33 -21 -440 l0 -414
115 0 115 0 0 252 0 253 250 -250 250 -250 130 -3 130 -4 0 116 0 116 -77 0
-77 0 -221 220 -220 220 298 0 297 0 0 115 0 115 -452 -1 c-249 0 -463 -4
-474 -9z"/>
<path d="M60 55 c0 -8 7 -15 15 -15 8 0 15 7 15 15 0 8 -7 15 -15 15 -8 0 -15
-7 -15 -15z"/>
</g>
</svg>
