<?xml version="1.0" standalone="no"?>
<!DOCTYPE svg PUBLIC "-//W3C//DTD SVG 20010904//EN"
 "http://www.w3.org/TR/2001/REC-SVG-20010904/DTD/svg10.dtd">
<svg version="1.0" xmlns="http://www.w3.org/2000/svg"
 width="117.000000pt" height="117.000000pt" viewBox="0 0 117.000000 117.000000"
 preserveAspectRatio="xMidYMid meet">
<metadata>
Created by potrace 1.10, written by Peter Selinger 2001-2011
</metadata>
<g transform="translate(0.000000,117.000000) scale(0.100000,-0.100000)"
fill="#000000" stroke="none">
<path d="M82 801 c3 -206 3 -210 27 -235 14 -14 41 -30 60 -36 20 -6 174 -10
354 -10 l317 0 0 -205 0 -205 115 0 115 0 0 288 c0 250 -2 291 -16 311 -34 48
-59 51 -414 51 l-330 0 0 125 0 125 -116 0 -115 0 3 -209z"/>
<path d="M840 895 l0 -115 115 0 115 0 0 115 0 115 -115 0 -115 0 0 -115z"/>
<path d="M80 305 l0 -195 115 0 115 0 0 195 0 195 -115 0 -115 0 0 -195z"/>
<path d="M82 58 c6 -18 28 -21 28 -4 0 9 -7 16 -16 16 -9 0 -14 -5 -12 -12z"/>
</g>
</svg>
