<?xml version="1.0" standalone="no"?>
<!DOCTYPE svg PUBLIC "-//W3C//DTD SVG 20010904//EN"
 "http://www.w3.org/TR/2001/REC-SVG-20010904/DTD/svg10.dtd">
<svg version="1.0" xmlns="http://www.w3.org/2000/svg"
 width="117.000000pt" height="117.000000pt" viewBox="0 0 117.000000 117.000000"
 preserveAspectRatio="xMidYMid meet">
<metadata>
Created by potrace 1.10, written by Peter Selinger 2001-2011
</metadata>
<g transform="translate(0.000000,117.000000) scale(0.100000,-0.100000)"
fill="#000000" stroke="none">
<path d="M122 1024 c-51 -35 -52 -47 -52 -431 0 -391 0 -390 59 -430 34 -23
34 -23 433 -23 531 0 501 -13 506 231 4 171 -6 216 -52 242 -15 8 -122 13
-366 17 l-345 5 -3 88 -3 87 386 0 385 0 0 115 0 115 -463 0 c-403 0 -465 -2
-485 -16z m713 -634 c4 -7 -87 -10 -265 -10 -178 0 -269 3 -265 10 8 14 522
14 530 0z"/>
<path d="M80 85 c0 -8 4 -15 9 -15 5 0 11 7 15 15 3 9 0 15 -9 15 -8 0 -15 -7
-15 -15z"/>
</g>
</svg>
