<?xml version="1.0" standalone="no"?>
<!DOCTYPE svg PUBLIC "-//W3C//DTD SVG 20010904//EN"
 "http://www.w3.org/TR/2001/REC-SVG-20010904/DTD/svg10.dtd">
<svg version="1.0" xmlns="http://www.w3.org/2000/svg"
 width="117.000000pt" height="117.000000pt" viewBox="0 0 117.000000 117.000000"
 preserveAspectRatio="xMidYMid meet">
<metadata>
Created by potrace 1.10, written by Peter Selinger 2001-2011
</metadata>
<g transform="translate(0.000000,117.000000) scale(0.100000,-0.100000)"
fill="#000000" stroke="none">
<path d="M132 1024 c-48 -33 -52 -57 -52 -299 0 -245 5 -277 53 -308 24 -15
63 -17 366 -17 213 0 342 -4 346 -10 4 -6 -128 -11 -377 -12 l-383 -3 -3 -117
-3 -118 446 0 c475 0 487 1 530 50 18 20 20 39 23 181 4 171 -6 216 -52 242
-15 8 -122 13 -366 17 l-345 5 0 85 0 85 383 3 382 2 0 115 0 115 -463 0
c-403 0 -465 -2 -485 -16z"/>
<path d="M90 85 c0 -8 4 -15 9 -15 5 0 11 7 15 15 3 9 0 15 -9 15 -8 0 -15 -7
-15 -15z"/>
</g>
</svg>
