<?xml version="1.0" standalone="no"?>
<!DOCTYPE svg PUBLIC "-//W3C//DTD SVG 20010904//EN"
 "http://www.w3.org/TR/2001/REC-SVG-20010904/DTD/svg10.dtd">
<svg version="1.0" xmlns="http://www.w3.org/2000/svg"
 width="117.000000pt" height="117.000000pt" viewBox="0 0 117.000000 117.000000"
 preserveAspectRatio="xMidYMid meet">
<metadata>
Created by potrace 1.10, written by Peter Selinger 2001-2011
</metadata>
<g transform="translate(0.000000,117.000000) scale(0.100000,-0.100000)"
fill="#000000" stroke="none">
<path d="M57 1034 c-4 -4 -7 -58 -7 -121 l0 -113 380 0 380 0 0 -90 0 -90
-380 0 -380 0 0 -115 0 -115 380 0 c247 0 380 -4 380 -10 0 -6 -133 -10 -380
-10 l-380 0 0 -115 0 -115 461 0 461 0 34 34 34 34 0 371 c0 394 -1 406 -49
438 -24 16 -65 18 -476 21 -248 1 -454 0 -458 -4z"/>
<path d="M57 93 c-12 -11 -8 -23 8 -23 8 0 15 7 15 15 0 16 -12 20 -23 8z"/>
</g>
</svg>
