<?xml version="1.0" standalone="no"?>
<!DOCTYPE svg PUBLIC "-//W3C//DTD SVG 20010904//EN"
 "http://www.w3.org/TR/2001/REC-SVG-20010904/DTD/svg10.dtd">
<svg version="1.0" xmlns="http://www.w3.org/2000/svg"
 width="117.000000pt" height="117.000000pt" viewBox="0 0 117.000000 117.000000"
 preserveAspectRatio="xMidYMid meet">
<metadata>
Created by potrace 1.10, written by Peter Selinger 2001-2011
</metadata>
<g transform="translate(0.000000,117.000000) scale(0.100000,-0.100000)"
fill="#000000" stroke="none">
<path d="M64 1027 c-2 -7 -3 -60 -2 -118 l3 -104 377 -3 378 -2 0 -90 0 -90
-335 0 c-373 0 -379 -1 -409 -64 -22 -46 -23 -300 -2 -351 28 -65 24 -65 531
-65 l455 0 0 115 0 115 -380 0 c-247 0 -380 4 -380 10 0 6 118 10 333 10 357
0 362 1 401 53 20 27 21 43 24 257 3 251 -2 282 -54 317 -26 17 -62 18 -481
21 -376 2 -454 1 -459 -11z"/>
<path d="M70 86 c0 -9 7 -16 16 -16 17 0 14 22 -4 28 -7 2 -12 -3 -12 -12z"/>
</g>
</svg>
